<?xml version="1.0" encoding="UTF-8"?>
<svg xmlns="http://www.w3.org/2000/svg" xml:space="preserve" version="1.1"
 viewBox="6400 0 10600 9737.65"
 style="shape-rendering:geometricPrecision; fill-rule:evenodd; clip-rule:evenodd">
 <defs>
  <style type="text/css">
   .fil0 {fill:white}
   .fil1 {fill:black}

   @keyframes honeyDrip {
     0%   { transform: scaleY(0); opacity: 0; }
     10%  { opacity: 1; }
     100% { transform: scaleY(1); opacity: 1; }
   }
   .bar {
     transform-origin: 0 0;
     transform: scaleY(0);
     opacity: 0;
     animation: honeyDrip 1.4s cubic-bezier(0.2, 0.8, 0.1, 1) forwards;
   }
   .b1  { animation-delay: 0.0s; }
   .b2  { animation-delay: 0.1s; }
   .b3  { animation-delay: 0.2s; }
   .b4  { animation-delay: 0.3s; }
   .b5  { animation-delay: 0.4s; }
   .b6  { animation-delay: 0.5s; }
   .b7  { animation-delay: 0.6s; }
   .b8  { animation-delay: 0.7s; }
   .b9  { animation-delay: 0.8s; }
   .b10 { animation-delay: 0.9s; }
   .b11 { animation-delay: 1.0s; }
   .b12 { animation-delay: 1.1s; }
   .b13 { animation-delay: 1.2s; }
   .b14 { animation-delay: 1.3s; }
   .b15 { animation-delay: 1.4s; }
   .b16 { animation-delay: 1.5s; }
   .b17 { animation-delay: 1.6s; }
   .b18 { animation-delay: 1.7s; }
   .b19 { animation-delay: 1.8s; }
   .b20 { animation-delay: 1.9s; }
   .b21 { animation-delay: 2.0s; }
   .b22 { animation-delay: 2.1s; }
   .b23 { animation-delay: 2.2s; }
   .b24 { animation-delay: 2.3s; }
   .b25 { animation-delay: 2.4s; }
   .b26 { animation-delay: 2.5s; }
   .b27 { animation-delay: 2.6s; }
  </style>
 </defs>
 <rect class="fil0" x="6400" y="0" width="10600" height="9737.65"/>
 <rect class="fil1 bar b1"  x="6491.47"  y="-0.01" width="121.65" height="9737.65"/>
 <rect class="fil1 bar b2"  x="6705.44"  y="-0.01" width="161.78" height="9737.65"/>
 <rect class="fil1 bar b3"  x="7146.77"  y="-0.01" width="81.54"  height="9737.65"/>
 <rect class="fil1 bar b4"  x="7481.09"  y="-0.01" width="161.78" height="9737.65"/>
 <rect class="fil1 bar b5"  x="7882.28"  y="-0.01" width="135.05" height="9737.65"/>
 <rect class="fil1 bar b6"  x="8163.13"  y="-0.01" width="242.02" height="9737.65"/>
 <rect class="fil1 bar b7"  x="8510.83"  y="-0.01" width="161.8"  height="9737.65"/>
 <rect class="fil1 bar b8"  x="8912.05"  y="-0.01" width="54.8"   height="9737.65"/>
 <rect class="fil1 bar b9"  x="9056.79"  y="-0.01" width="354.01" height="9737.65"/>
 <rect class="fil1 bar b10" x="9702.73"  y="-0.01" width="354.01" height="9737.65"/>
 <rect class="fil1 bar b11" x="10164.12" y="-0.01" width="184.83" height="9737.65"/>
 <rect class="fil1 bar b12" x="10487.08" y="-0.01" width="246.35" height="9737.65"/>
 <rect class="fil1 bar b13" x="11086.87" y="-0.01" width="338.63" height="9737.65"/>
 <rect class="fil1 bar b14" x="11502.12" y="-0.01" width="261.74" height="9737.65"/>
 <rect class="fil1 bar b15" x="11840.47" y="-0.01" width="169.46" height="9737.65"/>
 <rect class="fil1 bar b16" x="12201.9"  y="-0.01" width="61.8"   height="9737.65"/>
 <rect class="fil1 bar b17" x="12463.34" y="-0.01" width="142.53" height="9737.65"/>
 <rect class="fil1 bar b18" x="12863.21" y="-0.01" width="234.8"  height="9737.65"/>
 <rect class="fil1 bar b19" x="13493.78" y="-0.01" width="188.66" height="9737.65"/>
 <rect class="fil1 bar b20" x="13924.4"  y="-0.01" width="127.15" height="9737.65"/>
 <rect class="fil1 bar b21" x="14139.71" y="-0.01" width="219.43" height="9737.65"/>
 <rect class="fil1 bar b22" x="14493.42" y="-0.01" width="65.66"  height="9737.65"/>
 <rect class="fil1 bar b23" x="14708.75" y="-0.01" width="219.43" height="9737.65"/>
 <rect class="fil1 bar b24" x="15216.28" y="-0.01" width="327.08" height="9737.65"/>
 <rect class="fil1 bar b25" x="15800.7"  y="-0.01" width="250.19" height="9737.65"/>
 <rect class="fil1 bar b26" x="16415.9"  y="-0.01" width="96.39"  height="9737.65"/>
 <rect class="fil1 bar b27" x="16600.44" y="-0.01" width="219.43" height="9737.65"/>
</svg>
