<?xml version="1.0" encoding="UTF-8"?>
<!DOCTYPE svg PUBLIC "-//W3C//DTD SVG 1.1//EN" "http://www.w3.org/Graphics/SVG/1.1/DTD/svg11.dtd">
<!-- Creator: CorelDRAW -->
<svg xmlns="http://www.w3.org/2000/svg" xml:space="preserve" width="109.031mm" height="65.4909mm" version="1.1" style="shape-rendering:geometricPrecision; text-rendering:geometricPrecision; image-rendering:optimizeQuality; fill-rule:evenodd; clip-rule:evenodd"
viewBox="0 0 2965.87 1781.5"
 xmlns:xlink="http://www.w3.org/1999/xlink">
 <defs>
  <style type="text/css">
   <![CDATA[
    .animated-signature {
        fill: transparent;
        stroke: white;
        stroke-width: 500;
        stroke-dasharray: 1;
        stroke-dashoffset: 1;
        stroke-linecap: round;
        stroke-linejoin: round;
        animation: drawSignature 3.5s ease-in-out forwards;
        clip-path: url(#exact-shape);
    }
    @keyframes drawSignature {
        0% { stroke-dashoffset: 1; fill: transparent; }
        70% { stroke-dashoffset: 0; fill: transparent; }
        100% { stroke-dashoffset: 0; fill: white; }
    }
   ]]>
  </style>
  <clipPath id="exact-shape">
    <path d="M1064.33 1637.97c75.48,-121.11 176.81,-218.92 276.95,-322.66 13.97,78.9 -176.43,300.33 -276.95,322.66zm422.69 -482.95c-42.07,29.71 -75.72,68.86 -113.09,103.79 -42.85,40.06 -39.18,-12.25 -134.13,-20.08 -27.18,-2.24 -25.76,-10.86 -12.15,-30.9 176.35,-259.81 315.64,-539.81 437.71,-828.86 30.86,-73.07 53.11,-149.46 64.91,-228.65 18.96,-127.13 -42.18,-179.54 -160.8,-134.28 -121.93,46.53 -225.66,124.24 -326.94,204.59 -296.99,235.61 -564.27,503.05 -818.04,784.78 -114.61,127.23 -225.58,257.48 -322.75,399.09 -47.69,69.5 -85.32,143.54 -99.21,228.17 -13.23,80.63 26.05,134.49 105.63,145.55 74.51,10.36 145.9,-6.03 216.94,-24.83 143.53,-37.98 279.38,-96.56 413.62,-159.28 7.31,-3.41 13.68,-8.85 22.87,-14.91 -13.29,-9.83 -22.4,-2.89 -31.17,1.2 -154.9,72.17 -313.81,132 -483.39,158.08 -42.17,6.48 -84.81,7.68 -126.54,-4.34 -45.88,-13.22 -66.87,-40.93 -67.6,-89.25 -1.26,-82.51 37.86,-151.22 77.01,-218.81 83.64,-144.4 188.45,-273.08 298.16,-397.61 215.4,-244.48 449.29,-469.59 700.24,-676.53 109.67,-90.44 222.6,-176.43 345.33,-248.32 47.93,-28.08 97.1,-53.6 152.23,-64.4 45.4,-8.9 66.77,8.63 67.19,55.67 0.57,62.34 -18,120.95 -37.34,178.89 -81.11,243.04 -190.26,473.54 -309.07,699.61 -40.92,77.85 -84.38,154.21 -134.41,226.58 -11.71,16.95 -22.94,33.37 -46.46,35.02 -9.11,0.64 -20.34,4.46 -16.86,18.1 3.31,12.96 12.27,15.08 24.83,11.91 44.38,-11.21 86.47,0.29 127.5,16.1 29.01,11.17 30.09,17.65 8.26,39.41 -66.14,65.97 -222.65,221.22 -264.51,304.31 -5.43,10.77 -10.19,23.08 -2.26,33.55 9.81,12.97 23.89,6.91 35.27,2.06 55.76,-23.73 101.61,-62.55 145.82,-102.81 50.69,-46.15 97.13,-96.41 127.58,-159.46 13.8,-28.57 23.9,-57.85 14.83,-89.94 -4.5,-15.94 5.99,-23.63 14.51,-32.98 35.9,-39.43 78.7,-72.24 109.49,-116.59 -1.06,-1.23 -2.13,-2.44 -3.21,-3.65zm3.21 3.65c13.38,-3.56 18.25,-17.38 33.2,-27.75 -37.82,109.06 -72.27,185.14 -93.59,295.85 -1.78,9.22 -1.8,20.35 8.84,25.43 10.69,5.09 18.17,-2.77 25.06,-9.32 23.41,-22.21 43.17,-47.83 60.14,-74.99 14.73,-23.55 34.66,-35.15 59.9,-43.86 126.41,-43.59 257.81,-64.11 388.54,-87.52 195.59,-35.03 391.07,-71.42 589.17,-89.05 102.59,-9.12 205.11,-20.67 308.92,-21.45 0.35,11.84 -16.58,6.69 -15.39,23.47 35.31,4.16 69.18,-0.23 100.64,-20.33 6.72,-4.29 11.41,-10.48 9.92,-18.8 -1.89,-10.49 -10.48,-12.15 -19.02,-14.07 -52.11,-11.75 -104.27,-2.43 -155.55,3.49 -254.36,29.37 -508.03,64.74 -760.5,107.44 -143.46,24.26 -285.45,57.4 -428.16,86.23 -16.23,3.28 -31.66,7.47 -49.52,0.08 -21.01,-8.69 -62.05,27.31 -61.65,50.48 0.48,27.6 -20.64,41.81 -36.32,59.62 17.56,-84.56 52.2,-162.97 80.06,-243.78 33.27,-96.5 95.5,-177.15 136.31,-269.32 35.28,-79.68 63.65,-161.64 87.81,-245.25 2.23,-7.69 9.53,-17.62 -0.24,-23.24 -9.54,-5.49 -15.38,4.74 -19.97,11.46 -19.33,28.28 -38.92,56.46 -51.79,88.64 -44.62,111.57 -89.64,222.97 -133.76,334.74 -14.97,37.93 -45.95,64.24 -66.25,98.16 1.07,1.19 2.15,2.42 3.21,3.64zm134.11 -208.48l85.44 -187.71c8.71,-19.27 8.71,-19.27 6.04,-11.49 -21.33,62.13 -56.24,148.9 -90.9,204.54 -4.41,7.08 -7.66,11.26 -0.58,-5.34zm-436.39 -156.26c-1.57,-7.61 0.38,-23.64 -14.59,-20.37 -16.57,3.62 -30.63,22.88 -26.39,35.93 19.78,60.81 -5.64,116.4 -16.47,172.83 -35.24,183.67 -97.75,360.06 -145.7,540.38 -19.84,74.6 -36.57,150.03 -54.83,225.06 -3.13,12.83 -7.78,27.65 8.79,32.71 17.73,5.42 19.43,-11.63 24.01,-23.33 33.45,-85.37 42.27,-176.94 64.58,-265.16 48.37,-191.32 93.57,-383.45 139.84,-575.3 9.56,-39.64 16.72,-79.77 20.76,-122.75z" />
  </clipPath>
  <path id="mainPath" d="M1064.33 1637.97c75.48,-121.11 176.81,-218.92 276.95,-322.66 13.97,78.9 -176.43,300.33 -276.95,322.66zm422.69 -482.95c-42.07,29.71 -75.72,68.86 -113.09,103.79 -42.85,40.06 -39.18,-12.25 -134.13,-20.08 -27.18,-2.24 -25.76,-10.86 -12.15,-30.9 176.35,-259.81 315.64,-539.81 437.71,-828.86 30.86,-73.07 53.11,-149.46 64.91,-228.65 18.96,-127.13 -42.18,-179.54 -160.8,-134.28 -121.93,46.53 -225.66,124.24 -326.94,204.59 -296.99,235.61 -564.27,503.05 -818.04,784.78 -114.61,127.23 -225.58,257.48 -322.75,399.09 -47.69,69.5 -85.32,143.54 -99.21,228.17 -13.23,80.63 26.05,134.49 105.63,145.55 74.51,10.36 145.9,-6.03 216.94,-24.83 143.53,-37.98 279.38,-96.56 413.62,-159.28 7.31,-3.41 13.68,-8.85 22.87,-14.91 -13.29,-9.83 -22.4,-2.89 -31.17,1.2 -154.9,72.17 -313.81,132 -483.39,158.08 -42.17,6.48 -84.81,7.68 -126.54,-4.34 -45.88,-13.22 -66.87,-40.93 -67.6,-89.25 -1.26,-82.51 37.86,-151.22 77.01,-218.81 83.64,-144.4 188.45,-273.08 298.16,-397.61 215.4,-244.48 449.29,-469.59 700.24,-676.53 109.67,-90.44 222.6,-176.43 345.33,-248.32 47.93,-28.08 97.1,-53.6 152.23,-64.4 45.4,-8.9 66.77,8.63 67.19,55.67 0.57,62.34 -18,120.95 -37.34,178.89 -81.11,243.04 -190.26,473.54 -309.07,699.61 -40.92,77.85 -84.38,154.21 -134.41,226.58 -11.71,16.95 -22.94,33.37 -46.46,35.02 -9.11,0.64 -20.34,4.46 -16.86,18.1 3.31,12.96 12.27,15.08 24.83,11.91 44.38,-11.21 86.47,0.29 127.5,16.1 29.01,11.17 30.09,17.65 8.26,39.41 -66.14,65.97 -222.65,221.22 -264.51,304.31 -5.43,10.77 -10.19,23.08 -2.26,33.55 9.81,12.97 23.89,6.91 35.27,2.06 55.76,-23.73 101.61,-62.55 145.82,-102.81 50.69,-46.15 97.13,-96.41 127.58,-159.46 13.8,-28.57 23.9,-57.85 14.83,-89.94 -4.5,-15.94 5.99,-23.63 14.51,-32.98 35.9,-39.43 78.7,-72.24 109.49,-116.59 -1.06,-1.23 -2.13,-2.44 -3.21,-3.65zm3.21 3.65c13.38,-3.56 18.25,-17.38 33.2,-27.75 -37.82,109.06 -72.27,185.14 -93.59,295.85 -1.78,9.22 -1.8,20.35 8.84,25.43 10.69,5.09 18.17,-2.77 25.06,-9.32 23.41,-22.21 43.17,-47.83 60.14,-74.99 14.73,-23.55 34.66,-35.15 59.9,-43.86 126.41,-43.59 257.81,-64.11 388.54,-87.52 195.59,-35.03 391.07,-71.42 589.17,-89.05 102.59,-9.12 205.11,-20.67 308.92,-21.45 0.35,11.84 -16.58,6.69 -15.39,23.47 35.31,4.16 69.18,-0.23 100.64,-20.33 6.72,-4.29 11.41,-10.48 9.92,-18.8 -1.89,-10.49 -10.48,-12.15 -19.02,-14.07 -52.11,-11.75 -104.27,-2.43 -155.55,3.49 -254.36,29.37 -508.03,64.74 -760.5,107.44 -143.46,24.26 -285.45,57.4 -428.16,86.23 -16.23,3.28 -31.66,7.47 -49.52,0.08 -21.01,-8.69 -62.05,27.31 -61.65,50.48 0.48,27.6 -20.64,41.81 -36.32,59.62 17.56,-84.56 52.2,-162.97 80.06,-243.78 33.27,-96.5 95.5,-177.15 136.31,-269.32 35.28,-79.68 63.65,-161.64 87.81,-245.25 2.23,-7.69 9.53,-17.62 -0.24,-23.24 -9.54,-5.49 -15.38,4.74 -19.97,11.46 -19.33,28.28 -38.92,56.46 -51.79,88.64 -44.62,111.57 -89.64,222.97 -133.76,334.74 -14.97,37.93 -45.95,64.24 -66.25,98.16 1.07,1.19 2.15,2.42 3.21,3.64zm134.11 -208.48l85.44 -187.71c8.71,-19.27 8.71,-19.27 6.04,-11.49 -21.33,62.13 -56.24,148.9 -90.9,204.54 -4.41,7.08 -7.66,11.26 -0.58,-5.34zm-436.39 -156.26c-1.57,-7.61 0.38,-23.64 -14.59,-20.37 -16.57,3.62 -30.63,22.88 -26.39,35.93 19.78,60.81 -5.64,116.4 -16.47,172.83 -35.24,183.67 -97.75,360.06 -145.7,540.38 -19.84,74.6 -36.57,150.03 -54.83,225.06 -3.13,12.83 -7.78,27.65 8.79,32.71 17.73,5.42 19.43,-11.63 24.01,-23.33 33.45,-85.37 42.27,-176.94 64.58,-265.16 48.37,-191.32 93.57,-383.45 139.84,-575.3 9.56,-39.64 16.72,-79.77 20.76,-122.75z" pathLength="1" />
 </defs>
 <g id="Слой_x0020_1">
  <use href="#mainPath" class="animated-signature" />
 </g>
</svg>
