<?xml version="1.0" encoding="UTF-8"?>
<!DOCTYPE svg PUBLIC "-//W3C//DTD SVG 1.1//EN" "http://www.w3.org/Graphics/SVG/1.1/DTD/svg11.dtd">
<!-- Creator: CorelDRAW -->
<svg xmlns="http://www.w3.org/2000/svg" xml:space="preserve" width="103.284mm" height="1474.06mm" version="1.1" style="shape-rendering:geometricPrecision; text-rendering:geometricPrecision; image-rendering:optimizeQuality; fill-rule:evenodd; clip-rule:evenodd"
viewBox="0 0 4789.14 68349.98"
 xmlns:xlink="http://www.w3.org/1999/xlink"
 xmlns:xodm="http://www.corel.com/coreldraw/odm/2003">
 <defs>
  <style type="text/css">
   <![CDATA[
    .fil0 {fill:#FFFFFF}
   ]]>
  </style>
 </defs>
 <g id="Слой_x0020_1">
  <metadata id="CorelCorpID_0Corel-Layer"/>
  <path class="fil0" d="M644.9 0l62.62 0 0 68349.98 -62.62 0 0 -68349.98zm130.23 0l112.22 0 0 68349.98 -112.22 0 0 -68349.98zm161.22 0l75.02 0 0 68349.98 -75.02 0 0 -68349.98zm186.04 0l25.41 0 0 68349.98 -25.41 0 0 -68349.98zm-663.51 0l75.02 0 0 68349.98 -75.02 0 0 -68349.98zm-155.02 0l37.81 0 0 68349.98 -37.81 0 0 -68349.98zm-204.63 0l75.02 0 0 68349.98 -75.02 0 0 -68349.98zm-99.22 0l56.41 0 0 68349.98 -56.41 0 0 -68349.98zm1189.51 0l164.15 0 0 68349.98 -164.15 0 0 -68349.98zm299.51 0l164.15 0 0 68349.98 -164.15 0 0 -68349.98zm213.94 0l85.7 0 0 68349.98 -85.7 0 0 -68349.98zm149.75 0l114.23 0 0 68349.98 -114.23 0 0 -68349.98zm278.12 0l157.02 0 0 68349.98 -157.02 0 0 -68349.98zm192.54 0l121.37 0 0 68349.98 -121.37 0 0 -68349.98zm156.89 0l78.58 0 0 68349.98 -78.58 0 0 -68349.98zm167.59 0l28.66 0 0 68349.98 -28.66 0 0 -68349.98zm121.23 0l66.09 0 0 68349.98 -66.09 0 0 -68349.98zm185.41 0l108.87 0 0 68349.98 -108.87 0 0 -68349.98zm292.39 0l87.48 0 0 68349.98 -87.48 0 0 -68349.98zm199.67 0l58.96 0 0 68349.98 -58.96 0 0 -68349.98zm99.84 0l101.75 0 0 68349.98 -101.75 0 0 -68349.98zm499.19 0l151.66 0 0 68349.98 -151.66 0 0 -68349.98zm270.99 0l116.01 0 0 68349.98 -116.01 0 0 -68349.98zm285.26 0l44.69 0 0 68349.98 -44.69 0 0 -68349.98zm85.57 0l101.75 0 0 68349.98 -101.75 0 0 -68349.98zm-877.15 0l101.75 0 0 68349.98 -101.75 0 0 -68349.98zm-99.85 0l30.45 0 0 68349.98 -30.45 0 0 -68349.98z"/>
 </g>
</svg>
